<?xml version="1.0" encoding="UTF-8"?>
<svg width="512" height="512" viewBox="0 0 512 512" xmlns="http://www.w3.org/2000/svg" role="img" aria-label="Browser Automation logo">
  <!-- Background -->
  <rect width="512" height="512" rx="80" fill="#1e73d1"/>

  <!-- Gear Icon -->
  <g transform="translate(256,256)">
    <circle cx="0" cy="0" r="96" fill="#ffffff" opacity="0.95"/>
    <circle cx="0" cy="0" r="66" fill="#1e73d1"/>
    <g fill="#ffffff" opacity="0.95">
      <rect x="-16" y="-160" width="32" height="80" rx="6"/>
      <g transform="rotate(45)"><rect x="-16" y="-160" width="32" height="80" rx="6"/></g>
      <g transform="rotate(90)"><rect x="-16" y="-160" width="32" height="80" rx="6"/></g>
      <g transform="rotate(135)"><rect x="-16" y="-160" width="32" height="80" rx="6"/></g>
      <g transform="rotate(180)"><rect x="-16" y="-160" width="32" height="80" rx="6"/></g>
      <g transform="rotate(225)"><rect x="-16" y="-160" width="32" height="80" rx="6"/></g>
      <g transform="rotate(270)"><rect x="-16" y="-160" width="32" height="80" rx="6"/></g>
      <g transform="rotate(315)"><rect x="-16" y="-160" width="32" height="80" rx="6"/></g>
    </g>
  </g>
</svg>
